<mxfile host="app.diagrams.net" modified="2023-05-09T06:35:03.062Z" agent="Mozilla/5.0 (Macintosh; Intel Mac OS X 10_15_7) AppleWebKit/537.36 (KHTML, like Gecko) Chrome/112.0.0.0 Safari/537.36" etag="pBjKFgq_aaq0roALX9Wh" version="21.2.9" type="github">
  <diagram name="Page-1" id="B_UyFP0xdK3haT3nYRw4">
    <mxGraphModel dx="1194" dy="648" grid="1" gridSize="10" guides="1" tooltips="1" connect="1" arrows="1" fold="1" page="1" pageScale="1" pageWidth="850" pageHeight="1100" math="0" shadow="0">
      <root>
        <mxCell id="0" />
        <mxCell id="1" parent="0" />
        <mxCell id="c3oKLOkxU6MKuh9B89T0-8" style="edgeStyle=orthogonalEdgeStyle;rounded=0;orthogonalLoop=1;jettySize=auto;html=1;entryX=0.5;entryY=0;entryDx=0;entryDy=0;" edge="1" parent="1" source="c3oKLOkxU6MKuh9B89T0-1" target="c3oKLOkxU6MKuh9B89T0-2">
          <mxGeometry relative="1" as="geometry" />
        </mxCell>
        <mxCell id="c3oKLOkxU6MKuh9B89T0-9" style="edgeStyle=orthogonalEdgeStyle;rounded=0;orthogonalLoop=1;jettySize=auto;html=1;entryX=0.5;entryY=0;entryDx=0;entryDy=0;" edge="1" parent="1" source="c3oKLOkxU6MKuh9B89T0-1" target="c3oKLOkxU6MKuh9B89T0-3">
          <mxGeometry relative="1" as="geometry" />
        </mxCell>
        <mxCell id="c3oKLOkxU6MKuh9B89T0-10" style="edgeStyle=orthogonalEdgeStyle;rounded=0;orthogonalLoop=1;jettySize=auto;html=1;entryX=0.5;entryY=0;entryDx=0;entryDy=0;" edge="1" parent="1" source="c3oKLOkxU6MKuh9B89T0-1" target="c3oKLOkxU6MKuh9B89T0-4">
          <mxGeometry relative="1" as="geometry" />
        </mxCell>
        <mxCell id="c3oKLOkxU6MKuh9B89T0-1" value="User" style="rounded=0;whiteSpace=wrap;html=1;" vertex="1" parent="1">
          <mxGeometry x="360" y="120" width="120" height="60" as="geometry" />
        </mxCell>
        <mxCell id="c3oKLOkxU6MKuh9B89T0-2" value="Create User" style="rounded=0;whiteSpace=wrap;html=1;" vertex="1" parent="1">
          <mxGeometry x="195" y="230" width="120" height="60" as="geometry" />
        </mxCell>
        <mxCell id="c3oKLOkxU6MKuh9B89T0-3" value="Update User Details" style="rounded=0;whiteSpace=wrap;html=1;" vertex="1" parent="1">
          <mxGeometry x="360" y="230" width="120" height="60" as="geometry" />
        </mxCell>
        <mxCell id="c3oKLOkxU6MKuh9B89T0-4" value="Authenticate User" style="rounded=0;whiteSpace=wrap;html=1;" vertex="1" parent="1">
          <mxGeometry x="535" y="230" width="120" height="60" as="geometry" />
        </mxCell>
      </root>
    </mxGraphModel>
  </diagram>
</mxfile>
